<?xml version="1.0" encoding="UTF-8"?>
<!-- Generator: Adobe Illustrator 16.0.0, SVG Export Plug-In . SVG Version: 6.00 Build 0)  -->
<!DOCTYPE svg PUBLIC "-//W3C//DTD SVG 1.1//EN" "http://www.w3.org/Graphics/SVG/1.1/DTD/svg11.dtd">
<svg version="1.1" id="Layer_1" xmlns="http://www.w3.org/2000/svg" xmlns:xlink="http://www.w3.org/1999/xlink" x="0px" y="0px" width="301.5px" height="62.046px" viewBox="-0.833 93.667 301.5 62.046" enable-background="new -0.833 93.667 301.5 62.046" xml:space="preserve">
<g id="cw-logo">
	<path fill="#FFFFFF" d="M9.917,133.438c-2.316,0-2.079-2.019-2.079-15.914c0-14.727,0.178-15.915,2.079-15.915   c1.663,0,1.9,0.95,2.019,8.789l7.601-1.603c-0.475-9.917-2.316-14.43-9.62-14.43c-6.354,0-9.917,3.207-9.917,23.1   c0,16.508,1.9,22.981,9.857,23.1c6.117,0.118,9.442-3.267,9.798-15.618l-7.661-1.722C11.995,132.489,11.58,133.438,9.917,133.438z    M32.066,94.365c-6.651,0-9.917,3.266-9.917,23.1c0,18.646,3.029,23.1,9.858,23.1c6.532,0,9.976-3.267,9.976-23.1   C41.924,97.334,38.599,94.365,32.066,94.365z M32.066,133.438c-1.9,0-2.078-1.246-2.078-15.914c0-14.964,0.297-15.915,2.078-15.915   c1.663,0,2.079,0.594,2.079,15.915C34.085,132.251,34.026,133.438,32.066,133.438z M60.154,109.092L58.313,123.7l-2.197-14.548   l-3.088-14.49h-8.195v45.725h7.126v-26.841l1.01,6.829l2.731,20.012h5.107l2.316-19.774l0.712-6.888v26.663h7.72V94.662h-8.907   L60.154,109.092z M83.967,94.662h-8.848v45.725h7.72v-17.815h1.663c5.226,0,10.036-2.019,10.036-13.955   C94.537,96.978,89.371,94.662,83.967,94.662z M83.551,115.446h-0.713v-13.658h0.832c2.316,0,3.028,2.375,3.028,7.245   C86.698,113.902,85.689,115.446,83.551,115.446z M108.967,125.66c0,5.819-0.06,7.72-2.079,7.72c-2.078,0-2.078-1.842-2.078-7.72   V94.603h-7.72v30.641c0,11.104,2.791,15.321,9.798,15.321c7.186,0,9.798-5.167,9.798-15.38V94.603h-7.72V125.66z M118.468,101.788   H125v38.599h7.72v-38.599h6.532v-7.126h-20.784V101.788z M148.753,133.261v-14.251h7.126v-7.126h-7.126v-10.095h7.958l1.424-7.126   h-17.102v45.725h17.459l-1.426-7.126H148.753z M180.522,106.717c0-4.75-0.891-12.055-10.985-12.055h-8.908v45.725h7.721v-21.377   h1.365l2.969,21.377h8.314l-4.217-22.981C180.107,115.446,180.522,111.527,180.522,106.717L180.522,106.717z M169.24,111.29h-0.891   v-9.501h1.01c2.018,0,3.324,1.069,3.324,4.87C172.684,109.983,171.377,111.29,169.24,111.29L169.24,111.29z M205.344,116.456   c-0.118,1.128-0.297,2.731-0.475,5.642c-0.119-2.851-0.416-4.573-0.534-5.582l-2.851-21.853h-5.819l-2.673,21.734   c-0.178,1.425-0.415,2.791-0.594,5.701c-0.059-3.385-0.178-4.691-0.355-5.701l-3.504-21.734h-7.126l7.007,45.725h7.066   l2.436-19.002c0.416-3.088,0.594-4.513,0.713-6.473c0.118,1.96,0.297,3.504,0.652,6.473l2.257,19.002h7.304l6.354-45.725h-7.363   L205.344,116.456z M226.365,94.365c-6.591,0-9.916,3.266-9.916,23.1c0,18.646,3.028,23.1,9.857,23.1   c6.531,0,9.977-3.267,9.977-23.1C236.283,97.334,232.898,94.365,226.365,94.365z M226.365,133.438c-1.9,0-2.078-1.246-2.078-15.914   c0-14.964,0.297-15.915,2.078-15.915c1.663,0,2.079,0.594,2.079,15.915C228.444,132.251,228.385,133.438,226.365,133.438z    M258.907,106.717c0-4.75-0.891-12.055-10.985-12.055h-8.967v45.725h7.72v-21.377h1.425l2.969,21.377h8.314l-4.217-22.981   C258.492,115.446,258.907,111.527,258.907,106.717z M247.684,111.29h-0.949v-9.501h1.068c2.02,0,3.326,1.069,3.326,4.87   C251.068,109.983,249.763,111.29,247.684,111.29z M269.299,132.667V94.662h-7.719v45.725h16.151l-1.128-7.72H269.299z    M286.758,94.662h-6.829v45.725h7.304c9.977,0,12.708-2.97,12.708-22.446C299.94,98.522,297.625,94.662,286.758,94.662z    M288.361,133.261h-0.653v-32.066h0.831c2.316,0,3.029,0.95,3.029,16.449C291.508,132.786,290.499,133.261,288.361,133.261z"/>
</g>
<g>
	<path fill="#FFFFFF" d="M221.712,146.156h7.692v1.02h-6.489v2.723h6.244v1.008h-6.244v3.718h-1.203V146.156z"/>
	<path fill="#FFFFFF" d="M231.759,146.156h5.889c0.761,0.013,1.681,0.024,2.429,0.684c0.282,0.24,0.773,0.792,0.773,1.812   c0,2.026-1.755,2.303-2.331,2.398l3.189,3.574h-1.607l-2.932-3.382h-4.184v3.382h-1.227V146.156z M232.974,147.176v3.07h4.281   c0.675,0,1.533-0.012,2.024-0.647c0.221-0.275,0.294-0.6,0.294-0.899c0-0.324-0.086-0.647-0.258-0.899   c-0.393-0.611-1.018-0.611-1.582-0.624H232.974z"/>
	<path fill="#FFFFFF" d="M253.682,150.511c0,2.89-2.43,4.341-5.214,4.341c-1.264,0-2.54-0.228-3.559-0.936   c-0.846-0.575-1.754-1.631-1.754-3.418c0-3.13,2.638-4.545,5.227-4.545C251.412,145.965,253.682,147.704,253.682,150.511z    M244.382,150.427c0,0.659,0.172,1.511,0.761,2.158c0.81,0.924,2.073,1.224,3.325,1.224c3.201,0,3.975-1.979,3.975-3.418   c0-2.231-1.828-3.467-4.196-3.406C246.443,147.032,244.382,147.92,244.382,150.427z"/>
	<path fill="#FFFFFF" d="M256.207,146.156h1.693l2.699,5.518c0.429,0.911,0.503,1.091,0.834,1.895   c0.294-0.804,0.393-1.02,0.785-1.858l2.735-5.554h1.669v8.468h-1.153v-4.869c0-1.619,0.024-1.896,0.11-2.591   c-0.245,0.66-0.319,0.804-0.65,1.487l-2.956,5.973h-1.129l-2.711-5.493c-0.479-0.959-0.602-1.224-0.871-1.931   c0.073,0.647,0.073,0.815,0.098,2.146v5.277h-1.153V146.156z"/>
	<path fill="#FFFFFF" d="M274.252,146.156h1.264v8.468h-1.264V146.156z"/>
	<path fill="#FFFFFF" d="M278.717,146.156h4.306c0.994,0,2.159,0.013,3.313,0.936c0.699,0.564,1.436,1.607,1.436,3.238   c0,1.56-0.712,2.579-1.215,3.083c-1.214,1.175-2.907,1.211-4.367,1.211h-3.472V146.156z M279.956,147.152v6.452h2.527   c1.092,0,2.44-0.036,3.361-1.188c0.49-0.623,0.675-1.403,0.675-2.123c0-1.139-0.454-1.906-0.908-2.338   c-0.822-0.792-1.791-0.792-2.576-0.804H279.956z"/>
	<path fill="#FFFFFF" d="M298.603,153.473c-0.159,0.144-0.294,0.275-0.479,0.42c-0.626,0.468-1.828,0.936-3.3,0.936   c-2.993,0-4.956-2.027-4.956-4.45c0-1.187,0.503-2.063,0.748-2.422c0.81-1.151,2.404-2.003,4.416-2.003   c2,0,3.264,0.804,3.754,1.211c0.479,0.396,0.663,0.731,0.847,1.031l-1.214,0.36c-0.16-0.229-0.282-0.408-0.553-0.636   c-0.735-0.624-1.742-0.924-2.735-0.924c-2.135,0-3.95,1.176-3.95,3.311c0,0.875,0.331,1.583,0.589,1.967   c0.944,1.427,2.76,1.547,3.324,1.547c0.822,0,2.037-0.252,2.858-1.115c0.54-0.575,0.613-1.043,0.688-1.535h-3.815v-1.008h4.846   v4.474h-1.067V153.473z"/>
</g>
<g>
	<path fill="#FFFFFF" d="M221.712,146.156h7.692v1.02h-6.489v2.723h6.244v1.008h-6.244v3.718h-1.203V146.156z"/>
	<path fill="#FFFFFF" d="M231.759,146.156h5.889c0.761,0.013,1.681,0.024,2.429,0.684c0.282,0.24,0.773,0.792,0.773,1.812   c0,2.026-1.755,2.303-2.331,2.398l3.189,3.574h-1.607l-2.932-3.382h-4.184v3.382h-1.227V146.156z M232.974,147.176v3.07h4.281   c0.675,0,1.533-0.012,2.024-0.647c0.221-0.275,0.294-0.6,0.294-0.899c0-0.324-0.086-0.647-0.258-0.899   c-0.393-0.611-1.018-0.611-1.582-0.624H232.974z"/>
	<path fill="#FFFFFF" d="M253.682,150.511c0,2.89-2.43,4.341-5.214,4.341c-1.264,0-2.54-0.228-3.559-0.936   c-0.846-0.575-1.754-1.631-1.754-3.418c0-3.13,2.638-4.545,5.227-4.545C251.412,145.965,253.682,147.704,253.682,150.511z    M244.382,150.427c0,0.659,0.172,1.511,0.761,2.158c0.81,0.924,2.073,1.224,3.325,1.224c3.201,0,3.975-1.979,3.975-3.418   c0-2.231-1.828-3.467-4.196-3.406C246.443,147.032,244.382,147.92,244.382,150.427z"/>
	<path fill="#FFFFFF" d="M256.207,146.156h1.693l2.699,5.518c0.429,0.911,0.503,1.091,0.834,1.895   c0.294-0.804,0.393-1.02,0.785-1.858l2.735-5.554h1.669v8.468h-1.153v-4.869c0-1.619,0.024-1.896,0.11-2.591   c-0.245,0.66-0.319,0.804-0.65,1.487l-2.956,5.973h-1.129l-2.711-5.493c-0.479-0.959-0.602-1.224-0.871-1.931   c0.073,0.647,0.073,0.815,0.098,2.146v5.277h-1.153V146.156z"/>
	<path fill="#FFFFFF" d="M274.252,146.156h1.264v8.468h-1.264V146.156z"/>
	<path fill="#FFFFFF" d="M278.717,146.156h4.306c0.994,0,2.159,0.013,3.313,0.936c0.699,0.564,1.436,1.607,1.436,3.238   c0,1.56-0.712,2.579-1.215,3.083c-1.214,1.175-2.907,1.211-4.367,1.211h-3.472V146.156z M279.956,147.152v6.452h2.527   c1.092,0,2.44-0.036,3.361-1.188c0.49-0.623,0.675-1.403,0.675-2.123c0-1.139-0.454-1.906-0.908-2.338   c-0.822-0.792-1.791-0.792-2.576-0.804H279.956z"/>
	<path fill="#FFFFFF" d="M298.603,153.473c-0.159,0.144-0.294,0.275-0.479,0.42c-0.626,0.468-1.828,0.936-3.3,0.936   c-2.993,0-4.956-2.027-4.956-4.45c0-1.187,0.503-2.063,0.748-2.422c0.81-1.151,2.404-2.003,4.416-2.003   c2,0,3.264,0.804,3.754,1.211c0.479,0.396,0.663,0.731,0.847,1.031l-1.214,0.36c-0.16-0.229-0.282-0.408-0.553-0.636   c-0.735-0.624-1.742-0.924-2.735-0.924c-2.135,0-3.95,1.176-3.95,3.311c0,0.875,0.331,1.583,0.589,1.967   c0.944,1.427,2.76,1.547,3.324,1.547c0.822,0,2.037-0.252,2.858-1.115c0.54-0.575,0.613-1.043,0.688-1.535h-3.815v-1.008h4.846   v4.474h-1.067V153.473z"/>
</g>
</svg>