<?xml version="1.0" encoding="UTF-8"?>
<!-- Generator: Adobe Illustrator 16.0.0, SVG Export Plug-In . SVG Version: 6.00 Build 0)  -->
<!DOCTYPE svg PUBLIC "-//W3C//DTD SVG 1.1//EN" "http://www.w3.org/Graphics/SVG/1.1/DTD/svg11.dtd">
<svg version="1.1" id="Layer_1" xmlns="http://www.w3.org/2000/svg" xmlns:xlink="http://www.w3.org/1999/xlink" x="0px" y="0px" width="100%" height="100%" viewBox="0 0 165.346 46.287" style="enable-background:new 0 0 165.346 46.287;" xml:space="preserve">
<g>
	<g>
		<path style="fill:#FFFFFF;stroke:#FFFFFF;stroke-width:0.1;stroke-miterlimit:10;" d="M107.048,36.289h5.529v0.734h-4.665v1.961    h4.489v0.725h-4.489v2.678h-0.864V36.289z"/>
		<path style="fill:#FFFFFF;stroke:#FFFFFF;stroke-width:0.1;stroke-miterlimit:10;" d="M114.275,36.289h4.233    c0.547,0.009,1.208,0.018,1.746,0.492c0.203,0.173,0.556,0.57,0.556,1.305c0,1.459-1.262,1.658-1.676,1.728l2.293,2.573h-1.155    l-2.108-2.436h-3.007v2.436h-0.882V36.289z M115.148,37.023v2.211h3.078c0.484,0,1.103-0.009,1.455-0.467    c0.158-0.198,0.212-0.432,0.212-0.647c0-0.233-0.063-0.466-0.186-0.647c-0.282-0.44-0.732-0.44-1.138-0.449H115.148z"/>
		<path style="fill:#FFFFFF;stroke:#FFFFFF;stroke-width:0.1;stroke-miterlimit:10;" d="M130.038,39.424    c0,2.081-1.746,3.126-3.748,3.126c-0.908,0-1.825-0.164-2.558-0.674c-0.608-0.414-1.262-1.175-1.262-2.461    c0-2.254,1.896-3.273,3.758-3.273C128.407,36.151,130.038,37.403,130.038,39.424z M123.353,39.364    c0,0.475,0.123,1.088,0.547,1.555c0.582,0.665,1.49,0.881,2.39,0.881c2.302,0,2.857-1.426,2.857-2.462    c0-1.606-1.313-2.496-3.017-2.452C124.834,36.919,123.353,37.558,123.353,39.364z"/>
		<path style="fill:#FFFFFF;stroke:#FFFFFF;stroke-width:0.1;stroke-miterlimit:10;" d="M131.859,36.289h1.217l1.94,3.973    c0.309,0.657,0.361,0.786,0.6,1.365c0.212-0.579,0.282-0.734,0.564-1.339l1.967-3.999h1.199v6.098h-0.829v-3.507    c0-1.165,0.018-1.364,0.08-1.865c-0.177,0.476-0.229,0.579-0.468,1.071l-2.126,4.301h-0.812l-1.948-3.955    c-0.345-0.691-0.433-0.881-0.627-1.391c0.053,0.466,0.053,0.587,0.071,1.546v3.8h-0.829V36.289z"/>
		<path style="fill:#FFFFFF;stroke:#FFFFFF;stroke-width:0.1;stroke-miterlimit:10;" d="M144.837,36.289h0.908v6.098h-0.908V36.289z    "/>
		<path style="fill:#FFFFFF;stroke:#FFFFFF;stroke-width:0.1;stroke-miterlimit:10;" d="M148.049,36.289h3.096    c0.714,0,1.552,0.009,2.381,0.674c0.503,0.406,1.032,1.157,1.032,2.332c0,1.123-0.512,1.856-0.873,2.22    c-0.873,0.846-2.091,0.872-3.141,0.872h-2.495V36.289z M148.94,37.005v4.646h1.816c0.785,0,1.755-0.025,2.417-0.854    c0.353-0.449,0.485-1.011,0.485-1.529c0-0.82-0.327-1.373-0.653-1.684c-0.591-0.57-1.287-0.57-1.852-0.579H148.94z"/>
		<path style="fill:#FFFFFF;stroke:#FFFFFF;stroke-width:0.1;stroke-miterlimit:10;" d="M162.348,41.557    c-0.115,0.104-0.212,0.198-0.344,0.303c-0.45,0.336-1.314,0.673-2.373,0.673c-2.151,0-3.563-1.459-3.563-3.204    c0-0.854,0.361-1.485,0.537-1.744c0.583-0.829,1.729-1.442,3.176-1.442c1.438,0,2.346,0.578,2.698,0.872    c0.344,0.285,0.477,0.527,0.608,0.743l-0.873,0.259c-0.114-0.164-0.202-0.294-0.396-0.458c-0.529-0.449-1.253-0.665-1.967-0.665    c-1.534,0-2.84,0.847-2.84,2.384c0,0.631,0.238,1.141,0.423,1.417c0.68,1.027,1.984,1.113,2.391,1.113    c0.591,0,1.464-0.181,2.055-0.803c0.389-0.415,0.441-0.751,0.494-1.105h-2.743v-0.726h3.483v3.222h-0.767V41.557z"/>
	</g>
	<path style="fill:#FFFFFF;" d="M83.193,31.314c-1.82,0-3.192-0.413-4.207-1.329"/>
	<path style="fill:#FFFFFF;" d="M158.022,11.776v-0.587c-0.259-0.623-0.597-1.09-0.993-1.419c0.406,0.475,0.729,1.13,0.936,2.007   H158.022z"/>
	<g>
		<g>
			<path style="fill:#FFFFFF;" d="M13.108,19.817c0,5.272-0.291,6.834-1.625,6.834c-0.447,0-0.785-0.15-1.041-0.515     c-0.693-0.986-0.786-3.552-0.786-9.056c0-7.539,0.173-9.57,1.827-9.57c0.221,0,0.413,0.045,0.581,0.141c0,0,0,0,0,0     c0.626,0.357,0.898,1.465,0.898,3.96v1.214h4.86v-1.758c0-3.109-0.611-5.568-2.061-7.093c-1.037-0.898-2.441-1.387-4.279-1.387     c-5.599,0-7.397,3.828-7.397,14.492c0,6.614,0.542,10.677,2.5,12.758c1.088,0.948,2.56,1.387,4.536,1.387     c3.452,0,6.846-1.875,6.846-9.688v-1.721H13.108z"/>
		</g>
	</g>
	<path style="fill:#FFFFFF;" d="M24.453,2.656h-4.86v28.568h4.86V16.759c0-1.824,0.348-2.593,1.276-2.593   c0.417,0,0.983,0.259,1.294,0.876c0.255,0.471,0.344,1.091,0.344,2.079v14.104h4.859V14.693c0-2.338-0.509-3.838-1.291-4.75   c-0.696-0.603-1.548-0.845-2.438-0.845c-1.275,0-3.188,0.688-4.058,2.998l0.013-0.361"/>
	<path style="fill:#FFFFFF;" d="M40.849,13.731c0.211,0.339,0.317,0.835,0.317,1.489c0,1.337-0.406,2.026-1.538,2.39l-2.059,0.689   c-3.336,1.094-4.351,2.998-4.351,7.05c0,2.475,0.53,4.233,1.779,5.316l0.001,0.001c0.652,0.565,1.497,0.886,2.571,0.886   c1.566,0,3.379-0.855,3.959-2.8v0.361c0.073,0.753,0.131,1.447,0.25,2.11h4.754c-0.435-1.135-0.493-2.714-0.493-4.74V15.787   c0-2.639-0.493-4.356-1.493-5.414c-1.087-0.961-2.591-1.274-4.354-1.274c-2.332,0-5.86,1.054-5.998,7.012h4.157   c0.029-2.309,0.493-2.917,1.479-2.917C40.292,13.193,40.628,13.377,40.849,13.731 M41.167,23.283c0,2.39-0.464,3.605-1.625,3.605   c-0.176,0-0.596-0.237-0.724-0.65c-0.124-0.374-0.191-0.84-0.191-1.379c0-1.458,0.261-2.309,1.074-2.836   c0.561-0.361,1.104-0.433,1.466-0.677V23.283z"/>
	<path style="fill:#FFFFFF;" d="M60.734,14.693c0-2.404-0.363-3.918-1.238-4.8c-0.632-0.637-1.546-0.794-2.491-0.794   c-1.798,0-3.379,1.094-4.046,3.241V9.666H48.1v21.558h4.86V16.759c0-1.824,0.348-2.593,1.277-2.593   c0.417,0,0.897,0.304,1.164,0.694c0.33,0.474,0.474,1.112,0.474,2.26v14.104h4.86V14.693z"/>
	<rect x="91.029" y="2.656" style="fill:#FFFFFF;" width="4.859" height="28.567"/>
	<polygon style="fill:#FFFFFF;" points="119.167,2.656 114.351,2.656 112.901,22.671 110.402,2.656 105.851,2.656 103.514,22.671    101.893,2.656 97.003,2.656 100.499,31.224 106.099,31.224 108.267,11.776 108.317,12.137 110.083,31.224 115.671,31.224  "/>
	<path style="fill:#FFFFFF;" d="M129.957,10.445c-0.956-0.858-2.285-1.346-4.136-1.346c-5.766,0-6.531,5.632-6.531,11.265   c0,4.029,0.229,7.602,2.044,9.606c0.955,0.856,2.283,1.345,4.133,1.345c5.765,0,6.532-5.632,6.532-11.265   C131.999,16.021,131.768,12.449,129.957,10.445z M125.821,27.067c-0.356,0-0.629-0.125-0.835-0.463   c-0.451-0.739-0.585-2.499-0.585-6.201c0-5.318,0.271-6.648,1.349-6.702c0.018-0.001,0.351-0.007,0.6,0.13   c0.717,0.437,0.892,2.083,0.892,6.572C127.241,25.796,126.985,27.067,125.821,27.067z"/>
	<path style="fill:#FFFFFF;" d="M138.49,19.271c0-2.876,1.073-3.889,2.931-3.889c0.434,0,0.841,0.041,1.304,0.162V9.098h-0.479   c-1.538,0-3.18,1.418-3.76,4.051l0.01-0.361V9.665h-4.865v21.559h4.859V19.271z"/>
	<rect x="143.75" y="2.656" style="fill:#FFFFFF;" width="4.859" height="28.567"/>
	<path style="fill:#FFFFFF;" d="M158.384,2.656v9.481h-0.058c-0.083-0.352-0.187-0.665-0.305-0.949v0.587h-0.058   c-0.206-0.877-0.529-1.532-0.936-2.007c-0.566-0.471-1.248-0.671-1.98-0.671c-2.9,0-4.815,2.796-4.815,11.062   c0,5.546,0.603,8.242,2.034,10.104c0.844,0.84,1.255,0.938,2.303,1.051c1.857,0,3.163-0.657,3.802-3.088l0.004,0.36v2.638h4.868   V2.656H158.384z M156.934,26.723c-0.391,0-0.63-0.125-0.869-0.444l-0.03-0.045c-0.46-0.735-0.581-2.394-0.581-5.588   c0-4.74,0.262-6.118,1.48-6.118c0.194,0,0.363,0.038,0.512,0.12c0.755,0.421,0.938,2.033,0.938,5.998   C158.384,25.345,158.123,26.723,156.934,26.723z"/>
	<path style="fill:#FFFFFF;" d="M75.276,14.693c0-2.404-0.363-3.918-1.238-4.8c-0.632-0.637-1.546-0.794-2.491-0.794   c-1.798,0-3.38,1.094-4.047,3.241V9.666h-4.858v21.558h4.86V16.759c0-1.824,0.348-2.593,1.276-2.593   c0.417,0,0.897,0.304,1.165,0.694c0.329,0.474,0.474,1.112,0.474,2.26v14.104h4.859V14.693z"/>
	<path style="fill:#FFFFFF;" d="M89.849,21.86v-2.228c0-4.971-0.83-7.846-2.476-9.302c-0.982-0.87-2.257-1.232-3.819-1.232   c-4.699,0-6.672,3.16-6.672,11.547c0,4.965,0.408,7.547,2.104,9.339c1.075,0.935,2.387,1.329,4.207,1.329   c4.221,0,6.003-2.351,6.138-7.427h-4.326c0,2.999-0.551,3.808-1.479,3.808c-0.34,0-0.672-0.136-0.93-0.519   c-0.294-0.436-0.492-1.188-0.492-2.438V21.86H89.849z M82.104,17.529V16.94c0-2.301,0.346-3.355,1.41-3.362l0-0.003   c1.073,0,1.421,1.054,1.421,3.363v0.589v0l-1.417,0v0.002H82.104L82.104,17.529z"/>
</g>
<g>
</g>
<g>
</g>
<g>
</g>
<g>
</g>
<g>
</g>
<g>
</g>
<g>
</g>
<g>
</g>
<g>
</g>
<g>
</g>
<g>
</g>
<g>
</g>
<g>
</g>
<g>
</g>
<g>
</g>
</svg>