<svg xmlns="http://www.w3.org/2000/svg" viewBox="0 0 184.4 120.8" style="enable-background:new 0 0 184.4 120.8;">
  <style>
    .st0{fill:#FFFFFF;}

    @media screen and (max-width: 75px) {
                #from-idg{
                    stroke-width:1;stroke-linecap:butt;stroke-miterlimit:4;stroke-dasharray:none;stroke:#ffffff;stroke-opacity:1;fill:#ffffff;
                }
            }
     
  </style>
  
  <g id="cio-logo">
    <polygon points="75 4.1 85.7 4.1 85.7 85.1 75 85.1 75 87.5 110.4 87.5 110.4 85.1 99.6 85.1 99.6 4.1 110.4 4.1 110.4 1.7 75 1.7" class="st0"/>
    <path d="M40.8 86.8c-21.6 0-24.4-21.6-24.4-48 0-16.6 1.5-36.9 23.1-36.9 23.3 0 26.2 24.4 26.2 24.4h2.7L67.9 1.5h-1.8l-6.2 6c0 0-7.5-7.6-21.1-7.6C16.1 0 0 20.7 0 45.8c0 23.6 17.4 43.7 40.6 43.7 13.4 0 23-7 23-7l5 5.2h1.7V62.4h-2.5C67.8 62.4 64 86.8 40.8 86.8zM147.5.8c-22.6 0-36.9 24.9-36.9 44.3 0 19.4 14.3 44.4 36.9 44.4 22.6 0 36.9-25 36.9-44.4C184.4 25.7 170.1.8 147.5.8zM147.5 87.2c-22.2 0-21-21.7-21-42.1 0-20.4-1.2-42.4 21-42.4 22.2 0 21 22 21 42.4C168.5 65.5 169.7 87.2 147.5 87.2z" class="st0"/>
  </g>
  <g id="from-idg">
   
    <path d="M54.1 101.2h12.5v1.7H56.1v4.5h10.2v1.7H56.1v6.2h-2V101.2zM70.5 101.2h9.6c1.2 0 2.7 0 4 1.1.5.4 1.3 1.3 1.3 3 0 3.4-2.9 3.8-3.8 4l5.2 5.9h-2.6l-4.8-5.6h-6.8v5.6h-2V101.2zM72.5 102.9v5.1h7c1.1 0 2.5 0 3.3-1.1.4-.5.5-1 .5-1.5 0-.5-.1-1.1-.4-1.5-.6-1-1.7-1-2.6-1H72.5zM106.2 108.4c0 4.8-4 7.2-8.5 7.2-2.1 0-4.1-.4-5.8-1.6-1.4-1-2.9-2.7-2.9-5.7 0-5.2 4.3-7.6 8.5-7.6C102.5 100.9 106.2 103.8 106.2 108.4zM91 108.3c0 1.1.3 2.5 1.2 3.6 1.3 1.5 3.4 2 5.4 2 5.2 0 6.5-3.3 6.5-5.7 0-3.7-3-5.8-6.8-5.7C94.4 102.6 91 104.1 91 108.3zM110.3 101.2h2.8l4.4 9.2c.7 1.5.8 1.8 1.4 3.2.5-1.3.6-1.7 1.3-3.1l4.5-9.2h2.7v14.1h-1.9v-8.1c0-2.7 0-3.2.2-4.3-.4 1.1-.5 1.3-1.1 2.5l-4.8 9.9h-1.8l-4.4-9.1c-.8-1.6-1-2-1.4-3.2.1 1.1.1 1.4.2 3.6v8.8h-1.9V101.2zM139.7 101.2h2.1v14.1h-2.1V101.2zM147 101.2h7c1.6 0 3.5 0 5.4 1.6 1.1.9 2.3 2.7 2.3 5.4 0 2.6-1.2 4.3-2 5.1-2 2-4.7 2-7.1 2H147V101.2zM149 102.8v10.7h4.1c1.8 0 4-.1 5.5-2 .8-1 1.1-2.3 1.1-3.5 0-1.9-.7-3.2-1.5-3.9-1.3-1.3-2.9-1.3-4.2-1.3H149zM179.3 113.4c-.3.2-.5.5-.8.7-1 .8-3 1.6-5.4 1.6-4.9 0-8.1-3.4-8.1-7.4 0-2 .8-3.4 1.2-4 1.3-1.9 3.9-3.3 7.2-3.3 3.3 0 5.3 1.3 6.1 2 .8.7 1.1 1.2 1.4 1.7l-2 .6c-.3-.4-.5-.7-.9-1.1-1.2-1-2.8-1.5-4.5-1.5-3.5 0-6.4 2-6.4 5.5 0 1.5.5 2.6 1 3.3 1.5 2.4 4.5 2.6 5.4 2.6 1.3 0 3.3-.4 4.7-1.9.9-1 1-1.7 1.1-2.6h-6.2v-1.7h7.9v7.4h-1.7V113.4z" class="st0"/>
  </g>
</svg>
