<svg xmlns="http://www.w3.org/2000/svg" viewBox="0 0 432.37 218.86">
 <style>
     .white-fill{fill:#FFFFFF;}
	 
	 @media screen and (max-width: 150px) {
                #from-idg{
                    stroke-width:1;stroke-linecap:butt;stroke-miterlimit:4;stroke-dasharray:none;stroke:#ffffff;stroke-opacity:1;fill:#ffffff;
                }
            }
  </style>
  <path class="white-fill" d="M132.08 122.7c-8.94 23.83-23.83 34.93-46.86 34.93-29.73 0-51.67-26.16-53.81-63-.11-1.95-.21-3.91-.21-5.92 0-50 21.63-72.41 43.08-72.41 33.26 0 47.67 30 53.3 48l1 3.26h11.18V67.39L138.69.93H126.83l-6 11.75C110.47 5.44 96.89.93 84.75.93 37.23.93 0 39.9 0 89.64 0 91.81.13 93.93.24 96c1.16 22.4 8.36 41.51 21.15 55.5 14.21 15.56 34.27 23.79 58 23.79 30.15 0 53-16.12 66-46.6l1.66-3.88L134 117.66zM225.76 75.2c-5-2.46-9.52-4.37-13.88-6.21-5.79-2.45-11.26-4.77-18.08-8.37-10.49-5.61-15.14-11.1-16.42-20a39.62 39.62 0 0 1-.43-5.71c0-11.66 9.2-19.79 22.35-19.79 21.26 0 33.19 12.08 44 44.55l1.06 3.19H256L254.62.93H243.37l-6.67 12c-9.38-6.37-22.82-12-35.53-12C175 .93 156 20.22 156 46.8c0 1.83.16 3.52.3 5.24 1.42 18.56 10.53 30.93 29.19 39.5 10.89 5 16.32 7.32 23.84 10.49l10.5 4.46c12.62 5.38 19.3 14.76 19.3 27.15 0 1.26-.17 2.39-.27 3.56-1.32 14.95-10.87 23.21-27.44 23.21-22.08 0-36-13.22-48-45.63l-1.13-3H151l1.9 62.06v.34h11.21L170.87 162c9.38 6.07 22.67 12.62 39.62 12.62 24.26 0 49.93-17.41 51.32-49.68 0-.91.13-1.78.13-2.71C261.94 94.65 246.26 85 225.76 75.2zM409.82 25.81C392 8.19 372.51 0 348.55 0a82.32 82.32 0 0 0-59.2 24.44h0C273 41 264.72 62.91 264.72 89.41c0 2 .15 3.88.26 5.8 1.25 22.41 9.62 41.41 25.15 56.45 16 15.48 35.86 23.67 57.49 23.67 23.83 0 44.06-8.13 60.1-24.18s24-36.22 24.55-61.68c0-1 .11-1.87.11-2.85C432.37 63 423.73 39.72 409.82 25.81zM401.12 89c-.49 45.31-20 72.32-52.57 72.32-16.15 0-29.57-6.9-38.81-19.95C301.67 130 297 114.56 296.12 96.48c-.11-2.17-.19-4.36-.19-6.6C295.93 42.35 315.6 14 348.55 14c32.46 0 52.62 28.1 52.62 73.35C401.17 87.9 401.13 88.45 401.12 89z"/>
  <polygon class="white-fill" points="206.46 218.21 209.82 218.21 209.82 207.57 227.29 207.57 227.29 204.69 209.82 204.69 209.82 196.9 227.97 196.9 227.97 193.98 206.46 193.98 206.46 218.21"/>
  <path class="white-fill" d="M260 201.12a6.58 6.58 0 0 0-2.16-5.18c-2.09-1.89-4.67-1.92-6.79-2H234.6v24.23H238v-9.68h11.7l8.2 9.68h4.5L253.5 208C255.12 207.71 260 206.92 260 201.12zm-22 4.56V196.9h13.31c1.58 0 3.33 0 4.43 1.78a4.69 4.69 0 0 1 .72 2.57 4.1 4.1 0 0 1-.82 2.57c-1.37 1.82-3.77 1.85-5.66 1.85H238zM281.1 193.4c-7.24 0-14.62 4-14.62 13a11.37 11.37 0 0 0 4.91 9.78 17 17 0 0 0 10 2.68c7.79 0 14.58-4.15 14.58-12.42C295.92 198.41 289.57 193.43 281.1 193.4zm.24 22.48c-3.5 0-7-.86-9.3-3.5a9.33 9.33 0 0 1-2.13-6.18c0-7.17 5.76-9.71 10.81-9.85 6.62-.17 11.74 3.36 11.74 9.75C292.45 210.21 290.29 215.88 281.34 215.88zM319.84 209.87a51.25 51.25 0 0 0-2.2 5.32c-.93-2.3-1.13-2.81-2.33-5.42L307.76 194H303v24.23h3.23v-15.1A52.94 52.94 0 0 0 306 197a49.42 49.42 0 0 0 2.44 5.53L316 218.21h3.16l8.27-17.09a36.86 36.86 0 0 0 1.82-4.25 48.79 48.79 0 0 0-.31 7.41v13.93h3.23V194h-4.67z" id="from-idg"/>
  <rect width="3.53" height="24.23" x="353.54" y="193.98" class="white-fill"/>
  <path class="white-fill" d="M387.37 196.66c-3.23-2.64-6.49-2.68-9.27-2.68h-12v24.23h9.71c4.08 0 8.82-.1 12.22-3.47a12.48 12.48 0 0 0 3.4-8.82A11.63 11.63 0 0 0 387.37 196.66zM386 211.9c-2.57 3.29-6.35 3.4-9.4 3.4h-7.07V196.83h8.61c2.2 0 4.91 0 7.21 2.3a9.13 9.13 0 0 1 2.54 6.69A10 10 0 0 1 386 211.9zM411.16 205.44v2.88h10.67a7.09 7.09 0 0 1-1.92 4.39 11.14 11.14 0 0 1-8 3.19c-1.58 0-6.66-.34-9.3-4.43a10.53 10.53 0 0 1-1.65-5.63c0-6.11 5.08-9.47 11-9.47a11.73 11.73 0 0 1 7.65 2.64 8.08 8.08 0 0 1 1.54 1.82l3.4-1a10 10 0 0 0-2.37-3 16.25 16.25 0 0 0-10.5-3.47c-5.63 0-10.09 2.44-12.35 5.73a12.71 12.71 0 0 0-2.09 6.93c0 6.93 5.49 12.73 13.86 12.73a15.86 15.86 0 0 0 9.23-2.68c.51-.41.89-.79 1.34-1.2v3.33h3v-12.8H411.16z" id="from-idg"/>
</svg>
